<?xml version="1.0" standalone="no"?>
<!DOCTYPE svg PUBLIC "-//W3C//DTD SVG 20010904//EN"
 "http://www.w3.org/TR/2001/REC-SVG-20010904/DTD/svg10.dtd">
<svg version="1.0" xmlns="http://www.w3.org/2000/svg"
 width="518.000000pt" height="518.000000pt" viewBox="0 0 518.000000 518.000000"
 preserveAspectRatio="xMidYMid meet">
<metadata>
Created by potrace 1.14, written by Peter Selinger 2001-2017
</metadata>
<g transform="translate(0.000000,518.000000) scale(0.100000,-0.100000)"
fill="#000000" stroke="none">
<path d="M2410 4764 c-201 -18 -255 -30 -314 -68 -54 -35 -106 -80 -107 -93 0
-4 -2 -17 -5 -28 -2 -11 2 -40 9 -64 18 -64 52 -86 177 -110 151 -29 187 -34
260 -32 36 1 178 3 315 5 267 3 259 2 382 62 45 23 97 73 76 74 -5 0 0 5 10
11 36 21 11 117 -42 162 -17 14 -45 28 -63 32 -18 4 -37 11 -43 15 -24 18
-131 32 -275 36 -85 2 -173 5 -195 7 -22 3 -105 -1 -185 -9z m475 -60 c58 -17
77 -30 94 -63 19 -35 -2 -66 -68 -99 -54 -26 -62 -27 -271 -32 -173 -4 -235
-2 -317 12 -57 9 -108 20 -114 24 -16 9 -38 66 -32 81 3 8 25 27 49 43 35 25
61 32 151 44 136 18 433 13 508 -10z m156 -10 c81 -24 124 -51 137 -88 16 -45
16 -50 -13 -85 -29 -33 -62 -53 -145 -83 -50 -19 -81 -21 -333 -23 -152 -1
-280 -4 -283 -7 -2 -3 -37 1 -75 8 -39 7 -74 13 -77 12 -4 -1 -29 3 -57 10
-27 6 -62 14 -76 16 -42 7 -68 28 -84 69 -8 20 -15 41 -15 46 0 26 128 121
164 121 19 0 19 -1 -2 -16 -50 -35 -45 -113 10 -147 51 -33 184 -49 383 -48
258 2 281 5 347 36 74 35 104 81 88 131 -7 19 -21 41 -33 49 -29 20 -7 20 64
-1z"/>
<path d="M3981 4488 c-63 -33 -82 -63 -82 -131 0 -42 5 -64 23 -89 29 -41 37
-48 66 -48 15 0 22 6 22 20 0 11 -4 20 -10 20 -19 0 -49 43 -55 80 -18 108 98
153 229 89 81 -40 86 -43 86 -56 0 -7 6 -16 13 -20 26 -16 57 -81 57 -120 0
-64 -33 -79 -107 -48 l-36 15 27 21 c19 15 26 29 26 56 0 30 -8 44 -44 78 -75
72 -172 88 -200 34 -15 -30 -3 -71 31 -106 10 -11 27 -30 38 -43 l20 -23 -23
7 c-32 10 -39 -17 -12 -51 20 -26 20 -28 3 -34 -10 -4 -22 -4 -26 -2 -5 3 -20
2 -34 -1 -26 -7 -26 -13 -7 -79 5 -15 2 -16 -21 -7 -36 14 -65 13 -65 -3 0 -7
15 -27 33 -45 24 -24 36 -29 44 -21 6 6 22 17 35 23 18 10 23 19 21 48 -2 34
0 36 32 42 26 5 36 13 41 31 3 13 3 29 -1 35 -14 23 26 20 76 -6 72 -36 130
-37 165 -3 36 36 41 91 15 153 -25 56 -125 161 -147 152 -8 -3 -14 0 -14 8 0
15 -53 32 -125 41 -41 5 -58 2 -94 -17z m134 -133 c52 -22 98 -88 69 -99 -9
-3 -20 6 -29 24 -20 38 -58 63 -84 55 -14 -4 -23 0 -30 13 -19 35 2 37 74 7z"/>
<path d="M2615 4310 c-16 -4 -50 -8 -75 -9 -64 -1 -346 -73 -430 -108 -74 -32
-87 -39 -165 -89 -151 -97 -190 -124 -237 -161 -25 -21 -65 -51 -87 -67 -23
-17 -51 -49 -63 -74 -24 -51 -80 -119 -198 -242 -145 -152 -215 -295 -219
-447 -2 -89 25 -148 99 -212 43 -38 67 -51 89 -51 36 0 40 17 11 42 -51 44
-69 238 -31 339 22 59 57 114 47 74 -15 -59 -16 -167 -2 -252 16 -100 42 -160
81 -191 l26 -21 -15 -59 c-17 -62 -28 -93 -75 -195 -70 -154 -91 -209 -115
-308 -42 -174 -42 -207 6 -459 21 -107 41 -159 86 -217 l24 -33 -31 -29 c-34
-32 -39 -56 -16 -88 13 -18 13 -22 0 -33 -21 -18 -19 -83 3 -103 10 -10 23
-17 29 -17 6 0 15 -19 21 -42 8 -33 8 -47 -4 -69 -19 -37 -17 -67 6 -109 11
-19 26 -49 34 -66 19 -40 62 -58 115 -49 45 7 54 -2 66 -67 7 -38 30 -67 42
-54 4 4 0 33 -9 66 l-16 60 34 6 c29 5 35 12 45 48 5 22 12 49 15 58 3 10 8
30 10 45 3 15 12 35 20 44 17 19 4 35 -36 41 -16 2 -26 10 -28 24 -7 50 76 65
115 19 19 -21 23 -37 22 -75 -2 -34 4 -57 19 -81 44 -69 85 -155 97 -199 7
-27 18 -46 27 -48 16 -3 42 88 78 273 31 155 117 341 175 379 25 16 34 15 110
-19 16 -7 37 -15 46 -18 11 -4 18 -22 22 -60 3 -30 13 -69 22 -87 l17 -32 -49
-50 -48 -50 34 -28 c19 -16 71 -48 116 -71 66 -33 86 -39 102 -31 11 7 50 8
96 5 43 -3 88 -1 104 4 15 6 46 16 68 23 22 6 49 18 60 26 19 14 19 15 1 45
-45 76 -45 79 -26 112 10 18 26 60 36 94 10 35 22 63 27 63 6 0 39 19 75 41
l65 41 31 -18 c17 -9 40 -22 51 -28 11 -6 30 -19 42 -30 12 -10 26 -15 32 -12
10 7 91 -71 91 -87 0 -17 113 -58 139 -52 66 17 70 58 8 73 -41 11 -78 42
-104 89 -22 39 -16 51 34 65 32 9 49 20 51 32 4 17 -1 18 -46 14 -49 -5 -49
-5 -42 21 5 20 12 25 31 23 46 -6 74 -23 87 -51 8 -19 29 -37 57 -50 48 -22
68 -52 80 -116 4 -22 10 -44 14 -50 9 -11 13 -25 41 -130 53 -197 91 -299 113
-303 24 -5 22 20 -12 118 -16 47 -41 126 -55 175 -15 50 -34 110 -42 135 -25
69 -24 69 51 96 39 13 94 40 123 60 50 33 52 33 36 9 -9 -14 -30 -33 -46 -41
-36 -19 -32 -35 10 -46 45 -12 153 15 229 57 39 21 60 29 56 20 -9 -26 60 -18
130 15 77 36 94 63 102 169 4 53 -1 105 -20 204 -14 72 -30 146 -35 162 -6 17
-29 85 -51 153 -22 67 -47 134 -54 148 -7 14 -24 69 -38 122 -14 54 -33 124
-42 157 -9 33 -18 71 -20 85 -9 58 -15 121 -21 199 -3 47 -7 87 -9 91 -2 3 -6
33 -10 65 -10 104 -16 149 -25 185 -35 138 -44 172 -66 228 -28 71 -115 226
-145 258 -10 11 -19 24 -19 28 0 17 -71 115 -114 157 -27 25 -96 73 -155 107
-104 60 -165 81 -227 82 -20 0 -39 9 -55 26 -23 25 -172 102 -280 145 -108 42
-287 61 -374 39z m241 -45 c80 -18 154 -47 340 -136 11 -6 36 -25 55 -42 30
-27 44 -32 93 -34 56 -3 175 -47 190 -72 4 -5 27 -20 52 -33 62 -31 119 -92
210 -228 168 -249 227 -447 259 -860 7 -94 15 -138 44 -261 11 -46 25 -108 32
-138 6 -30 29 -99 50 -153 22 -55 39 -104 39 -110 0 -5 6 -24 14 -41 41 -90
96 -341 99 -451 2 -97 -14 -137 -63 -165 -45 -25 -45 -26 -25 49 8 30 15 56
15 56 0 1 -6 4 -14 7 -8 3 -26 -12 -47 -41 -18 -25 -47 -58 -64 -74 -30 -28
-132 -72 -194 -84 l-34 -7 31 55 c33 56 43 118 20 118 -7 0 -29 -18 -50 -39
-51 -55 -113 -95 -184 -118 l-62 -21 -11 24 c-6 13 -36 40 -67 60 -35 22 -59
46 -65 64 -8 23 -20 31 -70 44 -42 12 -59 22 -59 34 0 9 18 74 41 143 l41 127
43 5 c119 17 186 124 153 244 -10 36 -48 76 -88 93 l-26 11 18 97 c11 53 26
138 34 187 8 50 28 141 45 204 30 110 30 118 27 301 -2 142 -6 191 -17 204
-24 29 -34 4 -23 -55 6 -30 9 -117 7 -194 -3 -128 -9 -174 -35 -275 -17 -65
-29 -125 -41 -200 -7 -41 -15 -79 -19 -85 -4 -5 -10 -37 -13 -70 -4 -33 -11
-77 -18 -99 -6 -21 -12 -46 -14 -55 -2 -9 -11 -41 -20 -71 -8 -30 -24 -100
-35 -155 -12 -55 -34 -140 -50 -190 -15 -49 -33 -110 -40 -135 -6 -25 -17 -58
-25 -75 -36 -82 -23 -172 37 -249 21 -26 25 -35 12 -28 -16 8 -61 58 -84 92
-3 4 -40 24 -83 45 -48 23 -89 51 -107 74 -31 37 -88 171 -97 228 -3 18 -9 33
-13 33 -4 0 -8 10 -8 23 0 12 -1 94 -2 182 -2 140 3 246 15 323 19 116 36 195
97 442 23 94 31 157 35 256 6 144 -9 272 -33 281 -8 3 -17 4 -19 2 -2 -2 2
-42 9 -89 6 -47 9 -119 6 -160 l-5 -74 -41 48 c-39 46 -64 54 -64 20 0 -7 20
-60 45 -116 30 -67 43 -109 39 -125 -8 -29 -10 -29 -40 5 -49 53 -122 216
-137 305 -11 70 -16 82 -33 82 -16 0 -20 -9 -25 -55 -4 -30 -5 -93 -3 -138 3
-70 9 -95 36 -149 17 -35 44 -78 58 -93 20 -22 23 -29 11 -29 -9 -1 -34 -4
-56 -7 -59 -8 -178 20 -237 56 -34 21 -54 28 -61 21 -28 -28 -134 174 -196
374 -36 118 -39 129 -46 172 -7 42 -20 61 -33 49 -9 -10 -4 -150 8 -219 6 -34
22 -99 34 -144 13 -46 19 -80 15 -77 -13 8 -45 73 -60 122 -17 60 -42 53 -51
-13 -15 -113 -9 -177 21 -237 16 -32 25 -58 20 -58 -44 0 -214 129 -241 182
-30 59 -66 152 -73 191 -9 46 -37 50 -59 10 -22 -41 -20 -27 14 78 57 175 63
284 14 231 -52 -55 -90 -122 -131 -231 -26 -69 -35 -187 -21 -266 l7 -40 -16
35 c-11 24 -16 58 -15 108 2 65 0 73 -16 70 -26 -5 -55 -100 -56 -186 l-1 -73
-23 28 c-34 43 -44 88 -47 218 -2 72 -7 121 -13 123 -17 5 -39 -48 -56 -137
-20 -104 -20 -181 -1 -228 8 -19 15 -37 15 -38 0 -2 -14 -6 -30 -10 -20 -4
-43 -1 -64 9 -54 26 -65 43 -95 162 -20 75 -9 285 20 393 2 8 -3 16 -11 18
-19 4 -78 -90 -114 -181 -36 -89 -45 -209 -22 -285 9 -30 16 -56 16 -58 0 -13
-56 49 -71 79 -26 51 -28 159 -4 258 5 23 39 86 59 113 15 19 26 38 26 42 0 5
28 38 63 74 150 159 185 200 225 266 24 39 59 81 79 95 19 14 53 40 76 57 205
160 379 257 511 285 28 5 56 14 61 18 6 4 24 10 40 13 33 6 68 13 93 21 9 3
49 8 87 11 39 3 84 9 100 13 52 15 160 14 231 -3z m-935 -950 c-34 -117 -61
-183 -78 -189 -21 -8 -16 43 13 125 14 40 30 83 36 94 19 37 53 85 56 77 1 -4
-11 -52 -27 -107z m73 -266 c41 -108 64 -137 162 -210 59 -44 119 -73 172 -84
41 -9 54 16 24 48 -35 37 -72 133 -72 187 0 54 16 75 26 35 3 -14 9 -25 13
-25 3 0 17 -18 30 -39 21 -35 86 -79 98 -67 3 3 -5 26 -17 51 -21 42 -63 186
-56 192 1 1 14 -28 29 -65 79 -203 130 -281 188 -287 19 -2 63 -15 99 -30 52
-22 86 -28 170 -32 97 -5 106 -4 124 15 18 21 18 22 -22 67 -53 60 -82 121
-91 192 -12 86 -2 105 20 41 35 -100 90 -198 132 -233 39 -34 40 -35 29 -77
-6 -24 -18 -74 -27 -113 -9 -38 -20 -86 -25 -105 -28 -109 -53 -391 -45 -510
3 -47 8 -118 11 -157 l6 -73 -45 0 c-58 0 -77 -8 -77 -31 0 -17 6 -18 63 -14
l62 5 -50 -32 c-27 -18 -96 -60 -153 -94 l-102 -63 -48 41 c-26 23 -67 61 -92
84 l-45 44 31 0 c34 0 70 22 61 37 -3 5 -33 9 -66 8 -32 -1 -90 3 -128 10 -37
7 -97 16 -133 19 -58 5 -120 18 -233 47 -37 10 -57 6 -57 -10 0 -5 12 -11 28
-15 15 -3 61 -15 102 -26 41 -11 91 -23 110 -25 215 -28 212 -26 112 -91 -32
-21 -78 -57 -104 -81 -26 -23 -53 -43 -60 -44 -98 -7 -181 15 -280 73 -38 22
-74 38 -83 35 -18 -7 -35 47 -35 113 0 25 -4 60 -10 78 -7 25 -6 33 3 29 94
-33 117 -39 133 -33 28 11 0 31 -71 51 -33 9 -93 33 -133 52 -89 42 -185 135
-239 231 -33 58 -35 68 -29 119 4 30 19 83 35 117 16 33 32 72 36 86 4 14 14
32 21 41 8 9 21 49 28 90 12 61 12 77 1 99 l-13 25 -7 -30 c-25 -109 -51 -196
-71 -237 -81 -162 -82 -252 -5 -370 63 -96 92 -124 188 -178 47 -27 78 -50 75
-58 -2 -7 1 -18 6 -25 12 -14 25 -127 14 -127 -4 0 -15 14 -24 30 -13 23 -24
30 -46 30 -37 0 -82 -41 -82 -75 0 -23 -4 -25 -39 -25 -22 0 -43 -4 -46 -10
-3 -5 -17 -10 -29 -10 -13 0 -35 -9 -49 -20 l-25 -20 -21 35 c-19 32 -46 113
-55 161 -2 11 -7 37 -11 59 -13 68 -15 87 -21 180 -5 80 -3 104 25 210 28 110
43 150 104 285 46 102 77 184 77 201 0 11 9 27 20 36 11 10 20 23 20 29 0 6
17 14 38 17 58 10 67 12 70 20 2 4 -6 33 -18 65 -18 47 -20 68 -15 122 l8 65
12 -61 c22 -105 61 -159 143 -203 35 -19 37 -8 8 50 -26 53 -31 83 -20 113 4
10 15 -3 35 -43 27 -55 58 -81 94 -81 20 0 19 13 -5 61 -22 42 -41 125 -34
144 3 6 17 10 32 7 20 -2 34 4 56 27 17 17 32 31 35 31 3 0 23 -46 45 -101z
m1106 -116 c0 -7 -2 -13 -5 -13 -6 0 -35 56 -35 67 1 13 40 -41 40 -54z m498
-714 c26 -18 45 -109 32 -144 -11 -29 -77 -85 -100 -85 -10 0 -25 -3 -34 -6
-22 -8 -21 19 4 119 34 136 39 147 58 139 10 -4 28 -14 40 -23z m-1943 -480
c4 -5 0 -18 -9 -28 -9 -10 -16 -27 -16 -38 0 -24 25 -48 40 -38 11 7 50 -21
50 -37 0 -4 -9 -8 -20 -8 -27 0 -25 -24 3 -43 l22 -15 -23 -22 -24 -22 31 -29
c55 -50 33 -81 -57 -85 -31 -1 -95 -9 -142 -18 -163 -32 -148 -32 -160 -1 -10
26 -7 32 25 65 37 38 37 50 -2 50 -16 0 -23 6 -23 19 0 25 48 63 71 56 28 -9
33 14 7 35 -20 17 -21 21 -8 30 27 18 122 41 154 38 30 -3 31 -2 28 30 -5 46
35 91 53 61z m71 -76 c-4 -6 -56 11 -56 19 0 5 4 7 9 4 5 -3 15 2 22 10 12 15
14 14 20 -7 3 -13 5 -25 5 -26z m1293 0 c8 -21 21 -55 31 -75 l18 -37 -39 -25
c-21 -15 -43 -26 -48 -26 -5 0 -14 -7 -21 -15 -18 -22 -27 -18 -33 14 -7 36
-29 48 -99 59 l-53 8 50 29 c28 16 77 46 109 67 33 21 62 38 66 38 3 0 12 -17
19 -37z m-511 -25 c63 -60 97 -88 103 -88 4 0 10 -7 13 -16 5 -12 1 -14 -17
-8 -12 3 -29 12 -37 19 -45 40 -170 23 -170 -22 0 -13 -6 -23 -14 -23 -17 0
-136 61 -136 70 0 8 128 95 150 103 33 11 73 -2 108 -35z m-623 -162 c47 -17
-46 -35 -102 -20 -27 7 -33 23 -26 68 l5 35 52 -38 c28 -21 60 -41 71 -45z
m57 50 c36 -15 101 -28 156 -30 17 0 32 -3 32 -7 0 -3 -17 -32 -38 -65 -53
-83 -97 -185 -123 -284 -20 -78 -24 -97 -28 -139 -1 -11 -4 -11 -16 -1 -8 7
-15 18 -15 25 0 6 -14 33 -32 60 -26 39 -33 60 -35 108 -2 67 -23 99 -80 123
-35 15 -43 38 -18 48 8 3 20 16 26 29 10 22 19 25 102 31 51 4 96 11 101 16
13 13 -1 41 -24 47 -11 3 -20 11 -20 19 0 7 -8 18 -17 23 -26 15 -11 13 29 -3z
m616 -16 c40 -18 42 -21 42 -63 0 -38 -5 -47 -32 -68 -17 -13 -47 -36 -66 -51
-19 -16 -37 -28 -39 -28 -2 0 -11 17 -20 37 -13 32 -16 83 -10 176 2 24 69 23
125 -3z m315 -1 c22 -10 24 -16 19 -53 -8 -64 -45 -168 -64 -180 -15 -9 -26
-2 -66 37 -66 65 -84 130 -48 176 24 30 112 41 159 20z m-213 -48 c0 -11 -4
-23 -10 -26 -6 -4 -10 5 -10 19 0 14 5 26 10 26 6 0 10 -9 10 -19z m29 -121
c33 -50 106 -120 126 -120 9 0 45 -59 45 -74 0 -2 -32 -14 -70 -26 -63 -20
-130 -23 -147 -6 -2 2 1 24 7 47 13 48 6 179 -11 211 -7 13 -6 18 4 18 7 0 28
-22 46 -50z m-76 -2 c11 -32 0 -184 -16 -215 -16 -30 -18 -31 -49 -21 -33 11
-121 60 -146 81 -10 8 -7 16 14 39 15 15 35 28 43 28 9 1 43 23 76 50 65 54
71 56 78 38z m-954 -4 l31 -6 -25 -30 c-35 -41 -35 -99 0 -118 14 -7 25 -19
25 -26 0 -24 -12 -44 -27 -44 -8 0 -23 -10 -34 -22 -20 -25 -26 -10 -9 22 15
27 -5 35 -24 9 -11 -16 -22 -20 -40 -17 -30 6 -36 -15 -9 -30 15 -9 14 -12 -6
-41 -14 -19 -31 -31 -45 -31 -12 0 -27 -5 -33 -11 -9 -9 -10 -6 -6 12 3 13 11
29 17 34 17 15 46 80 46 104 0 25 -46 75 -76 85 -28 9 -38 56 -16 73 10 6 37
15 62 19 25 3 61 10 80 14 47 11 53 11 89 4z m-187 -175 c19 -25 19 -27 2 -62
-20 -42 -36 -46 -58 -15 -19 26 -20 61 -5 89 13 26 37 21 61 -12z m191 -99
c-3 -11 -9 -20 -15 -20 -5 0 -4 9 2 20 6 11 12 20 14 20 2 0 2 -9 -1 -20z
m-79 -35 c-9 -14 -19 -23 -22 -20 -5 4 26 45 35 45 2 0 -4 -11 -13 -25z"/>
<path d="M1770 2758 c-25 -5 -54 -13 -65 -18 -11 -5 -40 -14 -64 -22 -35 -10
-47 -19 -54 -42 -7 -21 -6 -31 4 -37 15 -9 21 -9 139 15 41 8 105 17 142 21
72 8 85 19 59 51 -35 44 -71 51 -161 32z"/>
<path d="M2402 2744 c-13 -15 -21 -32 -18 -39 2 -7 32 -16 67 -20 34 -4 76
-12 93 -17 17 -6 49 -14 71 -18 22 -4 51 -11 65 -14 14 -4 44 -9 66 -12 38 -6
42 -4 48 19 3 14 3 32 0 40 -7 20 -189 66 -329 83 -34 4 -43 1 -63 -22z"/>
<path d="M3170 1348 c-44 -67 -44 -68 -30 -118 7 -27 5 -49 -8 -95 -18 -62
-18 -70 7 -245 5 -41 10 -78 11 -82 0 -5 11 -8 25 -8 21 0 24 4 20 28 -8 46
-27 175 -31 211 -3 18 3 56 12 84 11 34 15 66 11 100 -6 44 3 81 22 97 13 11
31 51 31 70 0 38 -30 20 -70 -42z"/>
<path d="M2984 755 c-13 -20 -14 -28 -4 -40 10 -12 10 -15 -1 -15 -8 0 -27 -7
-43 -15 -20 -11 -33 -12 -40 -5 -22 22 -37 10 -35 -27 2 -61 -11 -130 -48
-266 -33 -119 -35 -158 -8 -139 19 14 79 229 91 329 7 51 7 53 53 69 25 9 55
20 66 25 11 4 43 14 70 22 31 9 51 20 53 31 4 21 -30 21 -86 2 l-41 -15 6 35
c7 41 -9 45 -33 9z"/>
<path d="M2326 707 c-3 -12 -6 -40 -6 -62 0 -23 -19 -108 -42 -190 -38 -140
-47 -199 -32 -214 9 -9 34 30 34 54 0 12 8 46 19 76 38 113 68 267 62 330 -2
27 -28 31 -35 6z"/>
<path d="M2184 694 c-9 -34 21 -94 48 -94 20 0 24 20 7 37 -6 6 -14 26 -18 44
-8 41 -28 49 -37 13z"/>
<path d="M2103 692 c-10 -6 -9 -18 4 -53 20 -54 43 -83 56 -70 9 9 -30 131
-42 131 -3 0 -12 -4 -18 -8z"/>
<path d="M2644 658 c-46 -90 -77 -145 -90 -159 -21 -23 -17 -41 8 -37 14 2 31
18 44 41 l21 39 7 -89 c7 -93 16 -120 35 -109 14 9 13 70 -3 166 -12 69 -11
78 6 113 19 38 18 67 -1 67 -6 0 -18 -15 -27 -32z"/>
<path d="M3101 637 c-47 -23 -49 -43 -11 -81 43 -41 128 -82 142 -68 14 14 4
27 -37 46 -35 17 -43 38 -26 65 10 15 4 41 -8 41 -4 0 -14 -11 -21 -25 -18
-33 -32 -32 -19 1 12 33 9 36 -20 21z"/>
<path d="M2925 570 c-13 -15 -16 -29 -11 -59 4 -28 0 -52 -14 -86 -42 -98 -15
-115 33 -21 16 32 32 54 36 48 3 -5 15 -12 26 -14 18 -4 16 -7 -12 -24 -30
-17 -46 -54 -24 -54 5 0 8 -14 7 -31 -2 -51 21 -45 45 10 30 72 40 77 84 46
21 -14 51 -25 67 -25 38 0 98 28 98 46 0 17 -23 18 -66 2 -25 -9 -39 -9 -59 0
-22 10 -24 15 -15 33 17 30 -23 63 -65 54 -70 -16 -70 -15 -67 43 3 49 2 52
-21 52 -13 0 -32 -9 -42 -20z"/>
<path d="M3411 488 c-17 -28 -13 -76 9 -98 29 -29 66 -25 101 9 52 52 30 96
-53 102 -36 3 -49 0 -57 -13z m99 -35 c0 -5 -7 -16 -14 -25 -23 -31 -65 -17
-52 17 5 15 66 22 66 8z"/>
</g>
</svg>
